<svg xmlns="http://www.w3.org/2000/svg" xmlns:xlink="http://www.w3.org/1999/xlink" width="588pt" height="170pt" viewBox="0.00 0.00 587.72 169.60">
<g id="graph0" class="graph" transform="scale(1 1) rotate(0) translate(4 165.6)">
<title>Animals</title>
<polygon fill="white" stroke="none" points="-4,4 -4,-165.6 583.72,-165.6 583.72,4 -4,4"/>
<!-- Animal -->
<g id="node1" class="node">
<title>Animal</title>
<ellipse fill="lightgray" stroke="black" cx="158.31" cy="-80.8" rx="40" ry="18"/>
<text text-anchor="middle" x="158.31" y="-76.6" font-family="Times,serif" font-size="14.00">Animal</text>
</g>
<!-- Lion -->
<g id="node3" class="node">
<title>Lion</title>
<polygon fill="none" stroke="black" points="385.22,-101.6 290.32,-101.6 290.32,-60 385.22,-60 385.22,-101.6"/>
<text text-anchor="middle" x="337.77" y="-85" font-family="Times,serif" font-size="14.00">Lion</text>
<text text-anchor="middle" x="337.77" y="-68.2" font-family="Times,serif" font-size="14.00">(Panthera leo)</text>
</g>
<!-- Animal&#45;&gt;Lion -->
<g id="edge2" class="edge">
<title>Animal-&gt;Lion</title>
<path fill="none" stroke="black" d="M198.69,-80.8C222.17,-80.8 252.42,-80.8 278.61,-80.8"/>
<polygon fill="black" stroke="black" points="278.43,-84.3 288.43,-80.8 278.43,-77.3 278.43,-84.3"/>
<text text-anchor="middle" x="225.64" y="-85" font-family="Times,serif" font-size="14.00">has</text>
</g>
<!-- Tarantula -->
<g id="node4" class="node">
<title>Tarantula</title>
<polygon fill="none" stroke="black" points="409.32,-41.6 266.22,-41.6 266.22,0 409.32,0 409.32,-41.6"/>
<text text-anchor="middle" x="337.77" y="-25" font-family="Times,serif" font-size="14.00">Tarantula</text>
<text text-anchor="middle" x="337.77" y="-8.2" font-family="Times,serif" font-size="14.00">(Avicularia avicularia)</text>
</g>
<!-- Animal&#45;&gt;Tarantula -->
<g id="edge3" class="edge">
<title>Animal-&gt;Tarantula</title>
<path fill="none" stroke="black" d="M190,-69.37C198.5,-66.27 207.74,-62.95 216.31,-60 230.14,-55.23 244.92,-50.29 259.22,-45.59"/>
<polygon fill="black" stroke="black" points="260.19,-48.96 268.6,-42.52 258.01,-42.3 260.19,-48.96"/>
<text text-anchor="middle" x="225.64" y="-64.2" font-family="Times,serif" font-size="14.00">has</text>
</g>
<!-- Hippopotamus -->
<g id="node5" class="node">
<title>Hippopotamus</title>
<polygon fill="none" stroke="black" points="422.57,-161.6 252.97,-161.6 252.97,-120 422.57,-120 422.57,-161.6"/>
<text text-anchor="middle" x="337.77" y="-145" font-family="Times,serif" font-size="14.00">Hippopotamus</text>
<text text-anchor="middle" x="337.77" y="-128.2" font-family="Times,serif" font-size="14.00">(Hippopotamus amphibius)</text>
</g>
<!-- Animal&#45;&gt;Hippopotamus -->
<g id="edge4" class="edge">
<title>Animal-&gt;Hippopotamus</title>
<path fill="none" stroke="black" d="M189.7,-92.25C198.28,-95.41 207.64,-98.8 216.31,-101.8 229.97,-106.52 244.55,-111.39 258.69,-116.02"/>
<polygon fill="black" stroke="black" points="257.36,-119.27 267.95,-119.04 259.53,-112.62 257.36,-119.27"/>
<text text-anchor="middle" x="225.64" y="-111.56" font-family="Times,serif" font-size="14.00">has</text>
</g>
<!-- LeftAnchor -->
<g id="node2" class="node">
<title>LeftAnchor</title>
</g>
<!-- LeftAnchor&#45;&gt;Animal -->
<g id="edge1" class="edge">
<title>LeftAnchor-&gt;Animal</title>
<polygon fill="black" stroke="black" points="106.52,-84.3 116.52,-80.8 106.52,-77.3 106.52,-84.3"/>
</g>
<!-- class_Mammal -->
<g id="node6" class="node">
<title>class_Mammal</title>
<ellipse fill="none" stroke="black" cx="532.75" cy="-105.8" rx="45.9" ry="18"/>
<text text-anchor="middle" x="532.75" y="-101.6" font-family="Times,serif" font-size="14.00">Mammal</text>
</g>
<!-- Lion&#45;&gt;class_Mammal -->
<g id="edge5" class="edge">
<title>Lion-&gt;class_Mammal</title>
<path fill="none" stroke="black" d="M385.67,-86.55C410.15,-89.59 440.59,-93.42 467.78,-97 471.01,-97.42 474.33,-97.87 477.68,-98.32"/>
<polygon fill="black" stroke="black" points="477.21,-101.78 487.59,-99.66 478.15,-94.85 477.21,-101.78"/>
<text text-anchor="middle" x="454.17" y="-101.2" font-family="Times,serif" font-size="14.00">class</text>
</g>
<!-- class_Arachnid -->
<g id="node7" class="node">
<title>class_Arachnid</title>
<ellipse fill="none" stroke="black" cx="532.75" cy="-20.8" rx="46.97" ry="18"/>
<text text-anchor="middle" x="532.75" y="-16.6" font-family="Times,serif" font-size="14.00">Arachnid</text>
</g>
<!-- Tarantula&#45;&gt;class_Arachnid -->
<g id="edge7" class="edge">
<title>Tarantula-&gt;class_Arachnid</title>
<path fill="none" stroke="black" d="M409.81,-20.8C431.02,-20.8 453.99,-20.8 474.23,-20.8"/>
<polygon fill="black" stroke="black" points="473.95,-24.3 483.95,-20.8 473.95,-17.3 473.95,-24.3"/>
<text text-anchor="middle" x="454.17" y="-25" font-family="Times,serif" font-size="14.00">class</text>
</g>
<!-- Hippopotamus&#45;&gt;class_Mammal -->
<g id="edge6" class="edge">
<title>Hippopotamus-&gt;class_Mammal</title>
<path fill="none" stroke="black" d="M422.85,-125.55C442.1,-122.06 462.01,-118.45 479.47,-115.28"/>
<polygon fill="black" stroke="black" points="479.85,-118.77 489.06,-113.54 478.6,-111.88 479.85,-118.77"/>
<text text-anchor="middle" x="454.17" y="-126.45" font-family="Times,serif" font-size="14.00">class</text>
</g>
</g>
</svg>